<?xml version="1.0" encoding="UTF-8"?>
<svg xmlns="http://www.w3.org/2000/svg" xmlns:xlink="http://www.w3.org/1999/xlink" width="130" viewBox="0 0 97.5 51.749998" height="69" preserveAspectRatio="xMidYMid meet">
  <defs>
    <clipPath id="f141aeb8a4">
      <path d="M 21.699219 10.9375 L 73.277344 10.9375 L 73.277344 26 L 21.699219 26 Z M 21.699219 10.9375 " clip-rule="nonzero"></path>
    </clipPath>
    <clipPath id="d66b857cd6">
      <path d="M 31 50 L 64 50 L 64 51.300781 L 31 51.300781 Z M 31 50 " clip-rule="nonzero"></path>
    </clipPath>
    <clipPath id="788d35d781">
      <path d="M 1.246094 24 L 10 24 L 10 31 L 1.246094 31 Z M 1.246094 24 " clip-rule="nonzero"></path>
    </clipPath>
    <clipPath id="382f3eee15">
      <path d="M 9 0.0078125 L 13 0.0078125 L 13 11 L 9 11 Z M 9 0.0078125 " clip-rule="nonzero"></path>
    </clipPath>
    <clipPath id="80a629af9e">
      <path d="M 12 0.0078125 L 19 0.0078125 L 19 9 L 12 9 Z M 12 0.0078125 " clip-rule="nonzero"></path>
    </clipPath>
    <clipPath id="05b48e68e7">
      <path d="M 87 24 L 95.757812 24 L 95.757812 31 L 87 31 Z M 87 24 " clip-rule="nonzero"></path>
    </clipPath>
    <clipPath id="3b3a07d98d">
      <path d="M 84 0.0078125 L 88 0.0078125 L 88 11 L 84 11 Z M 84 0.0078125 " clip-rule="nonzero"></path>
    </clipPath>
    <clipPath id="fd2d4fc725">
      <path d="M 78 0.0078125 L 85 0.0078125 L 85 9 L 78 9 Z M 78 0.0078125 " clip-rule="nonzero"></path>
    </clipPath>
  </defs>
  <path fill="#000000" d="M 59.082031 35.875 L 59.082031 23.507812 L 47.488281 27.019531 L 36.171875 23.507812 L 36.171875 35.875 C 36.171875 35.875 37.6875 39.953125 47.488281 39.953125 C 57.292969 39.953125 59.082031 35.875 59.082031 35.875 Z M 59.082031 35.875 " fill-opacity="1" fill-rule="nonzero"></path>
  <path fill="#000000" d="M 69.078125 24.269531 C 68.609375 24.269531 68.222656 24.609375 68.152344 25.054688 L 66.941406 32.050781 C 66.941406 32.578125 67.898438 33.007812 69.078125 33.007812 C 70.257812 33.007812 71.210938 32.578125 71.210938 32.050781 L 69.996094 25.007812 C 69.90625 24.585938 69.527344 24.269531 69.078125 24.269531 Z M 69.078125 24.269531 " fill-opacity="1" fill-rule="nonzero"></path>
  <path fill="#000000" d="M 70.015625 23.339844 C 70.015625 22.878906 69.675781 22.496094 69.230469 22.421875 L 69.125 19.449219 L 69.03125 19.476562 L 68.925781 22.421875 C 68.480469 22.496094 68.140625 22.878906 68.140625 23.339844 C 68.140625 23.855469 68.5625 24.269531 69.078125 24.269531 C 69.59375 24.269531 70.015625 23.855469 70.015625 23.339844 Z M 70.015625 23.339844 " fill-opacity="1" fill-rule="nonzero"></path>
  <g clip-path="url(#f141aeb8a4)">
    <path fill="#000000" d="M 50.1875 18.894531 C 49.984375 19.195312 49.597656 19.492188 49.398438 19.628906 C 49.054688 19.867188 48.371094 20.273438 47.695312 20.273438 C 46.519531 20.273438 45.558594 19.496094 45.558594 18.542969 C 45.558594 17.585938 46.519531 16.8125 47.695312 16.8125 C 48.371094 16.8125 49.054688 17.214844 49.398438 17.457031 C 49.59375 17.59375 49.976562 17.878906 50.179688 18.183594 L 69.078125 18.136719 L 69.125 19.449219 L 73.277344 18.269531 L 47.488281 10.9375 L 21.699219 18.269531 L 47.488281 25.597656 L 69.03125 19.476562 L 69.078125 18.136719 Z M 50.1875 18.894531 " fill-opacity="1" fill-rule="nonzero"></path>
  </g>
  <path fill="#000000" d="M 47.695312 17.53125 C 46.929688 17.53125 46.285156 17.996094 46.285156 18.542969 C 46.285156 19.089844 46.929688 19.550781 47.695312 19.550781 C 48.375 19.550781 49.3125 18.851562 49.554688 18.542969 C 49.3125 18.230469 48.375 17.53125 47.695312 17.53125 Z M 47.695312 17.53125 " fill-opacity="1" fill-rule="nonzero"></path>
  <g clip-path="url(#d66b857cd6)">
    <path fill="#000000" d="M 31.140625 50.246094 L 63.941406 50.246094 L 63.941406 51.300781 L 31.140625 51.300781 Z M 31.140625 50.246094 " fill-opacity="1" fill-rule="nonzero"></path>
  </g>
  <path fill="#000000" d="M 60.726562 42.007812 L 34.851562 42.007812 L 31.140625 44.371094 L 31.140625 45.125 C 31.140625 45.125 61.828125 45.195312 62.402344 45.195312 C 62.976562 45.195312 63.160156 45.71875 63.160156 46.335938 C 63.160156 46.953125 62.492188 47.613281 62.171875 47.613281 L 31.140625 47.613281 L 31.140625 49.304688 L 63.941406 49.304688 C 63.941406 49.304688 63.941406 49.007812 63.941406 48.664062 C 63.761719 48.589844 63.445312 48.535156 63.207031 48.140625 C 63.804688 47.796875 64.285156 47.089844 64.285156 46.289062 C 64.285156 45.492188 64.03125 45.058594 63.757812 44.761719 C 63.480469 44.464844 60.726562 42.007812 60.726562 42.007812 Z M 60.726562 42.007812 " fill-opacity="1" fill-rule="nonzero"></path>
  <path fill="#000000" d="M 28.390625 44.023438 C 28.390625 44.023438 27.660156 46.210938 23.242188 46.683594 C 18.828125 47.15625 16.945312 46.210938 16.945312 46.210938 C 16.945312 46.210938 19.886719 43.910156 22.714844 43.792969 C 25.539062 43.675781 28.390625 44.023438 28.390625 44.023438 Z M 28.390625 44.023438 " fill-opacity="1" fill-rule="nonzero"></path>
  <path fill="#000000" d="M 28.390625 44.023438 C 28.390625 44.023438 28.722656 41.734375 25.066406 39.210938 C 21.410156 36.683594 19.304688 36.613281 19.304688 36.613281 C 19.304688 36.613281 20.511719 39.734375 23.457031 41.558594 C 25.859375 43.050781 28.390625 44.023438 28.390625 44.023438 Z M 28.390625 44.023438 " fill-opacity="1" fill-rule="nonzero"></path>
  <path fill="#000000" d="M 23.15625 42.40625 C 23.15625 42.40625 20.902344 41.386719 17.503906 41.386719 C 14.101562 41.386719 11.542969 43.15625 11.542969 43.15625 C 11.542969 43.15625 14.058594 44.175781 17.679688 44.175781 C 21.300781 44.175781 23.15625 42.40625 23.15625 42.40625 Z M 23.15625 42.40625 " fill-opacity="1" fill-rule="nonzero"></path>
  <path fill="#000000" d="M 18.992188 40.234375 C 18.992188 40.234375 18.808594 37.765625 17.1875 34.769531 C 15.5625 31.773438 12.789062 30.363281 12.789062 30.363281 C 12.789062 30.363281 13.097656 33.066406 14.828125 36.257812 C 16.554688 39.445312 18.992188 40.234375 18.992188 40.234375 Z M 18.992188 40.234375 " fill-opacity="1" fill-rule="nonzero"></path>
  <path fill="#000000" d="M 17.292969 39.925781 C 17.292969 39.925781 15.34375 38.40625 12.039062 37.609375 C 8.730469 36.8125 5.828125 37.929688 5.828125 37.929688 C 5.828125 37.929688 8.039062 39.511719 11.558594 40.363281 C 15.078125 41.214844 17.292969 39.925781 17.292969 39.925781 Z M 17.292969 39.925781 " fill-opacity="1" fill-rule="nonzero"></path>
  <path fill="#000000" d="M 14.367188 37.292969 C 14.367188 37.292969 13.152344 35.136719 10.414062 33.121094 C 7.671875 31.101562 4.5625 31.011719 4.5625 31.011719 C 4.5625 31.011719 5.992188 33.324219 8.910156 35.472656 C 11.828125 37.621094 14.367188 37.292969 14.367188 37.292969 Z M 14.367188 37.292969 " fill-opacity="1" fill-rule="nonzero"></path>
  <path fill="#000000" d="M 11.464844 32.859375 C 11.464844 32.859375 12.285156 30.648438 12.070312 27.414062 C 11.855469 24.179688 10.019531 21.851562 10.019531 21.851562 C 10.019531 21.851562 9.210938 24.3125 9.441406 27.757812 C 9.671875 31.203125 11.464844 32.859375 11.464844 32.859375 Z M 11.464844 32.859375 " fill-opacity="1" fill-rule="nonzero"></path>
  <g clip-path="url(#788d35d781)">
    <path fill="#000000" d="M 9.15625 30.765625 C 9.15625 30.765625 8.3125 28.800781 6.140625 26.816406 C 3.972656 24.832031 1.308594 24.464844 1.308594 24.464844 C 1.308594 24.464844 2.324219 26.585938 4.632812 28.699219 C 6.945312 30.8125 9.15625 30.765625 9.15625 30.765625 Z M 9.15625 30.765625 " fill-opacity="1" fill-rule="nonzero"></path>
  </g>
  <path fill="#000000" d="M 7.847656 26.410156 C 7.847656 26.410156 7.742188 24.273438 6.40625 21.652344 C 5.070312 19.027344 2.703125 17.75 2.703125 17.75 C 2.703125 17.75 2.914062 20.089844 4.335938 22.882812 C 5.761719 25.675781 7.847656 26.410156 7.847656 26.410156 Z M 7.847656 26.410156 " fill-opacity="1" fill-rule="nonzero"></path>
  <path fill="#000000" d="M 6.933594 20.035156 C 6.933594 20.035156 7.117188 17.902344 6.144531 15.121094 C 5.171875 12.34375 3 10.757812 3 10.757812 C 3 10.757812 2.894531 13.105469 3.929688 16.0625 C 4.964844 19.023438 6.933594 20.035156 6.933594 20.035156 Z M 6.933594 20.035156 " fill-opacity="1" fill-rule="nonzero"></path>
  <path fill="#000000" d="M 7.816406 15.832031 C 7.816406 15.832031 8.792969 13.929688 8.945312 10.984375 C 9.09375 8.042969 7.683594 5.75 7.683594 5.75 C 7.683594 5.75 6.695312 7.882812 6.535156 11.015625 C 6.375 14.148438 7.816406 15.832031 7.816406 15.832031 Z M 7.816406 15.832031 " fill-opacity="1" fill-rule="nonzero"></path>
  <g clip-path="url(#382f3eee15)">
    <path fill="#000000" d="M 10.222656 10.773438 C 10.222656 10.773438 11.492188 9.054688 12.121094 6.175781 C 12.746094 3.300781 11.726562 0.804688 11.726562 0.804688 C 11.726562 0.804688 10.402344 2.75 9.738281 5.8125 C 9.070312 8.878906 10.222656 10.773438 10.222656 10.773438 Z M 10.222656 10.773438 " fill-opacity="1" fill-rule="nonzero"></path>
  </g>
  <path fill="#000000" d="M 7.960938 23.667969 C 7.960938 23.667969 9.550781 22.242188 10.738281 19.546875 C 11.925781 16.855469 11.425781 14.207031 11.425781 14.207031 C 11.425781 14.207031 9.742188 15.84375 8.476562 18.710938 C 7.210938 21.582031 7.960938 23.667969 7.960938 23.667969 Z M 7.960938 23.667969 " fill-opacity="1" fill-rule="nonzero"></path>
  <path fill="#000000" d="M 9.71875 14.039062 C 9.71875 14.039062 11.75 13.386719 13.929688 11.410156 C 16.105469 9.433594 16.726562 6.8125 16.726562 6.8125 C 16.726562 6.8125 14.523438 7.621094 12.203125 9.726562 C 9.882812 11.828125 9.71875 14.039062 9.71875 14.039062 Z M 9.71875 14.039062 " fill-opacity="1" fill-rule="nonzero"></path>
  <g clip-path="url(#80a629af9e)">
    <path fill="#000000" d="M 12.71875 8.148438 C 12.71875 8.148438 14.640625 7.21875 16.527344 4.960938 C 18.414062 2.703125 18.667969 0.0234375 18.667969 0.0234375 C 18.667969 0.0234375 16.597656 1.125 14.589844 3.53125 C 12.578125 5.933594 12.71875 8.148438 12.71875 8.148438 Z M 12.71875 8.148438 " fill-opacity="1" fill-rule="nonzero"></path>
  </g>
  <path fill="#000000" d="M 28.695312 45.410156 C 28.695312 48.371094 23.835938 51.59375 23.835938 50.019531 C 23.835938 48.445312 28.695312 46.460938 28.695312 45.410156 Z M 28.695312 45.410156 " fill-opacity="1" fill-rule="nonzero"></path>
  <path fill="#000000" d="M 68.609375 44.023438 C 68.609375 44.023438 69.34375 46.210938 73.757812 46.683594 C 78.175781 47.15625 80.058594 46.210938 80.058594 46.210938 C 80.058594 46.210938 77.113281 43.910156 74.289062 43.792969 C 71.460938 43.675781 68.609375 44.023438 68.609375 44.023438 Z M 68.609375 44.023438 " fill-opacity="1" fill-rule="nonzero"></path>
  <path fill="#000000" d="M 68.609375 44.023438 C 68.609375 44.023438 68.277344 41.734375 71.933594 39.210938 C 75.59375 36.683594 77.699219 36.613281 77.699219 36.613281 C 77.699219 36.613281 76.488281 39.734375 73.546875 41.558594 C 71.140625 43.050781 68.609375 44.023438 68.609375 44.023438 Z M 68.609375 44.023438 " fill-opacity="1" fill-rule="nonzero"></path>
  <path fill="#000000" d="M 73.847656 42.40625 C 73.847656 42.40625 76.097656 41.386719 79.5 41.386719 C 82.898438 41.386719 85.460938 43.15625 85.460938 43.15625 C 85.460938 43.15625 82.941406 44.175781 79.320312 44.175781 C 75.703125 44.175781 73.847656 42.40625 73.847656 42.40625 Z M 73.847656 42.40625 " fill-opacity="1" fill-rule="nonzero"></path>
  <path fill="#000000" d="M 78.007812 40.234375 C 78.007812 40.234375 78.191406 37.765625 79.816406 34.769531 C 81.4375 31.773438 84.210938 30.363281 84.210938 30.363281 C 84.210938 30.363281 83.902344 33.066406 82.175781 36.257812 C 80.445312 39.445312 78.007812 40.234375 78.007812 40.234375 Z M 78.007812 40.234375 " fill-opacity="1" fill-rule="nonzero"></path>
  <path fill="#000000" d="M 79.707031 39.925781 C 79.707031 39.925781 81.660156 38.40625 84.964844 37.609375 C 88.269531 36.8125 91.171875 37.929688 91.171875 37.929688 C 91.171875 37.929688 88.964844 39.511719 85.441406 40.363281 C 81.921875 41.214844 79.707031 39.925781 79.707031 39.925781 Z M 79.707031 39.925781 " fill-opacity="1" fill-rule="nonzero"></path>
  <path fill="#000000" d="M 82.632812 37.292969 C 82.632812 37.292969 83.847656 35.136719 86.589844 33.121094 C 89.332031 31.101562 92.441406 31.011719 92.441406 31.011719 C 92.441406 31.011719 91.011719 33.324219 88.09375 35.472656 C 85.171875 37.621094 82.632812 37.292969 82.632812 37.292969 Z M 82.632812 37.292969 " fill-opacity="1" fill-rule="nonzero"></path>
  <path fill="#000000" d="M 85.539062 32.859375 C 85.539062 32.859375 84.714844 30.648438 84.929688 27.414062 C 85.144531 24.179688 86.984375 21.851562 86.984375 21.851562 C 86.984375 21.851562 87.789062 24.3125 87.5625 27.757812 C 87.332031 31.203125 85.539062 32.859375 85.539062 32.859375 Z M 85.539062 32.859375 " fill-opacity="1" fill-rule="nonzero"></path>
  <g clip-path="url(#05b48e68e7)">
    <path fill="#000000" d="M 87.84375 30.765625 C 87.84375 30.765625 88.691406 28.800781 90.859375 26.816406 C 93.027344 24.832031 95.691406 24.464844 95.691406 24.464844 C 95.691406 24.464844 94.675781 26.585938 92.367188 28.699219 C 90.058594 30.8125 87.84375 30.765625 87.84375 30.765625 Z M 87.84375 30.765625 " fill-opacity="1" fill-rule="nonzero"></path>
  </g>
  <path fill="#000000" d="M 89.152344 26.410156 C 89.152344 26.410156 89.257812 24.273438 90.59375 21.652344 C 91.929688 19.027344 94.296875 17.75 94.296875 17.75 C 94.296875 17.75 94.089844 20.089844 92.664062 22.882812 C 91.242188 25.675781 89.152344 26.410156 89.152344 26.410156 Z M 89.152344 26.410156 " fill-opacity="1" fill-rule="nonzero"></path>
  <path fill="#000000" d="M 90.066406 20.035156 C 90.066406 20.035156 89.882812 17.902344 90.855469 15.121094 C 91.828125 12.34375 94 10.757812 94 10.757812 C 94 10.757812 94.109375 13.105469 93.074219 16.0625 C 92.035156 19.023438 90.066406 20.035156 90.066406 20.035156 Z M 90.066406 20.035156 " fill-opacity="1" fill-rule="nonzero"></path>
  <path fill="#000000" d="M 89.183594 15.832031 C 89.183594 15.832031 88.210938 13.929688 88.058594 10.984375 C 87.90625 8.042969 89.316406 5.75 89.316406 5.75 C 89.316406 5.75 90.304688 7.882812 90.464844 11.015625 C 90.628906 14.148438 89.183594 15.832031 89.183594 15.832031 Z M 89.183594 15.832031 " fill-opacity="1" fill-rule="nonzero"></path>
  <g clip-path="url(#3b3a07d98d)">
    <path fill="#000000" d="M 86.78125 10.773438 C 86.78125 10.773438 85.507812 9.054688 84.882812 6.175781 C 84.257812 3.300781 85.277344 0.804688 85.277344 0.804688 C 85.277344 0.804688 86.597656 2.75 87.265625 5.8125 C 87.929688 8.878906 86.78125 10.773438 86.78125 10.773438 Z M 86.78125 10.773438 " fill-opacity="1" fill-rule="nonzero"></path>
  </g>
  <path fill="#000000" d="M 89.042969 23.667969 C 89.042969 23.667969 87.453125 22.242188 86.265625 19.546875 C 85.074219 16.855469 85.574219 14.207031 85.574219 14.207031 C 85.574219 14.207031 87.257812 15.84375 88.523438 18.710938 C 89.789062 21.582031 89.042969 23.667969 89.042969 23.667969 Z M 89.042969 23.667969 " fill-opacity="1" fill-rule="nonzero"></path>
  <path fill="#000000" d="M 87.285156 14.039062 C 87.285156 14.039062 85.253906 13.386719 83.074219 11.410156 C 80.894531 9.433594 80.277344 6.8125 80.277344 6.8125 C 80.277344 6.8125 82.480469 7.621094 84.796875 9.726562 C 87.121094 11.828125 87.285156 14.039062 87.285156 14.039062 Z M 87.285156 14.039062 " fill-opacity="1" fill-rule="nonzero"></path>
  <g clip-path="url(#fd2d4fc725)">
    <path fill="#000000" d="M 84.28125 8.148438 C 84.28125 8.148438 82.359375 7.21875 80.472656 4.960938 C 78.585938 2.703125 78.335938 0.0234375 78.335938 0.0234375 C 78.335938 0.0234375 80.402344 1.125 82.414062 3.53125 C 84.421875 5.933594 84.28125 8.148438 84.28125 8.148438 Z M 84.28125 8.148438 " fill-opacity="1" fill-rule="nonzero"></path>
  </g>
  <path fill="#000000" d="M 68.304688 45.410156 C 68.304688 48.371094 73.164062 51.59375 73.164062 50.019531 C 73.164062 48.445312 68.304688 46.460938 68.304688 45.410156 Z M 68.304688 45.410156 " fill-opacity="1" fill-rule="nonzero"></path>
</svg>
